<?xml version="1.0"?><svg viewBox="0 0 40 40" xmlns="http://www.w3.org/2000/svg"><g id="Ubisoft"><path d="M19.17,6c-8.52-.11-12.34,7.76-12.34,7.76L8,14.58a10.2,10.2,0,0,0-1.45,5.55A13.33,13.33,0,0,0,19.94,34c4.71,0,13.49-3.31,13.49-13.74C33.43,9.44,24.21,6.07,19.17,6ZM9.88,24.58H9.5A13.55,13.55,0,0,1,9,20.64c0-2.29,2.55-7.26,8.53-7.26A7.86,7.86,0,0,1,25,19h-.38a9.25,9.25,0,0,0-7.13-3.69C12.94,15.29,9.88,19.24,9.88,24.58Zm12.73.26a3,3,0,0,1-2.67,1.52,3.76,3.76,0,0,1-4-3.69,3.75,3.75,0,0,1,3.69-3.56,2.94,2.94,0,0,1,2.93,2.8,2.83,2.83,0,0,1-1,2.16Zm-2.67,6.74c-2.77-.17-7.89-2.42-7.89-7.76a6.38,6.38,0,0,1,3.06-5.44l.24.22a6.16,6.16,0,0,0-1.65,4.33,5.92,5.92,0,0,0,6.24,5.85c4.07,0,7.51-3.31,7.51-8.4s-4.84-9.29-10.06-9.29-7,2.42-7,2.42L10,13.26a11.21,11.21,0,0,1,10-4.84c4.1.19,11.2,3.69,11.2,12A10.9,10.9,0,0,1,19.94,31.58Z"/></g></svg>
